<?xml version="1.0" encoding="utf-8"?>
<!-- Generator: Adobe Illustrator 19.0.0, SVG Export Plug-In . SVG Version: 6.00 Build 0)  -->
<svg version="1.2" baseProfile="tiny" id="Layer_1" xmlns="http://www.w3.org/2000/svg" xmlns:xlink="http://www.w3.org/1999/xlink"
	 x="0px" y="0px" viewBox="0 0 612 196.8" xml:space="preserve">
<path id="XMLID_22_" fill="#353535" d="M169.3,46.8L89.1,0.6c-1.9-1.1-4.1-1.1-6,0L3,46.8c-1.9,1.1-3,3.1-3,5.2v92.5
	c0,2.1,1.1,4.1,3,5.2L83.1,196c1.9,1.1,4.1,1.1,6,0l80.1-46.3c1.9-1.1,3-3.1,3-5.2V52C172.3,49.9,171.1,47.9,169.3,46.8z
	 M128.6,75.6H96.9v87.3H75.6V75.6H43.8V57.2h84.8V75.6z"/>
<g id="XMLID_2_">
	<polygon id="XMLID_21_" fill="#353535" points="590.4,113.5 590.4,69.7 584.7,69.7 584.7,118.7 612,118.7 612,113.5 	"/>
	<path id="XMLID_18_" fill="#353535" d="M551.3,68.9c-7.2,0-12.8,2.2-16.8,6.6c-3.9,4.4-5.9,10.6-5.9,18.6c0,8.1,2,14.3,5.9,18.7
		c3.9,4.4,9.5,6.6,16.7,6.6c7.1,0,12.6-2.2,16.6-6.7c4-4.5,6-10.7,6-18.5c0-7.9-2-14-5.9-18.5C563.8,71.1,558.3,68.9,551.3,68.9z
		 M563.5,109.2c-2.8,3.4-6.9,5.1-12.3,5.1c-5.4,0-9.5-1.7-12.3-5.1c-2.8-3.4-4.2-8.5-4.2-15.1c0-6.6,1.4-11.5,4.2-15
		c2.8-3.4,7-5.1,12.4-5.1c5.4,0,9.5,1.7,12.3,5.1c2.8,3.4,4.1,8.4,4.1,15C567.7,100.8,566.3,105.8,563.5,109.2z"/>
	<polygon id="XMLID_17_" fill="#353535" points="433.5,74.7 449.1,74.7 449.1,118.7 454.8,118.7 454.8,74.7 470.3,74.7 470.3,69.7 
		433.5,69.7 	"/>
	<path id="XMLID_14_" fill="#353535" d="M497.8,68.9c-7.2,0-12.8,2.2-16.8,6.6c-3.9,4.4-5.9,10.6-5.9,18.6c0,8.1,2,14.3,5.9,18.7
		c3.9,4.4,9.5,6.6,16.7,6.6c7.1,0,12.6-2.2,16.6-6.7c4-4.5,6-10.7,6-18.5c0-7.9-2-14-5.9-18.5C510.3,71.1,504.8,68.9,497.8,68.9z
		 M510,109.2c-2.8,3.4-6.9,5.1-12.3,5.1c-5.4,0-9.5-1.7-12.3-5.1c-2.8-3.4-4.2-8.5-4.2-15.1c0-6.6,1.4-11.5,4.2-15
		c2.8-3.4,7-5.1,12.4-5.1c5.4,0,9.5,1.7,12.3,5.1c2.8,3.4,4.1,8.4,4.1,15C514.2,100.8,512.8,105.8,510,109.2z"/>
	<polygon id="XMLID_13_" fill="#353535" points="198.5,78.3 211.8,78.3 211.8,118.7 222.2,118.7 222.2,78.3 235.6,78.3 235.6,69.7 
		198.5,69.7 	"/>
	<path id="XMLID_12_" fill="#353535" d="M417.4,92.9c0,2.6,0.2,7.1,0.5,13.5h-0.2l-21.3-36.7h-13.1v49h9.3V95.6
		c0-2.8-0.2-7.5-0.6-14h0.3l21.3,37.1h13.2v-49h-9.4V92.9z"/>
	<path id="XMLID_9_" fill="#353535" d="M347,69.5l-17.3,49.2h11.2l3.6-11.7h17.9l3.6,11.7h11.2l-17.4-49.2H347z M347.1,98.3
		c3.5-11.3,5.6-18.4,6.3-21.2c0.2,0.8,0.5,1.9,0.9,3.3c0.4,1.4,2.3,7.4,5.6,17.9H347.1z"/>
	<path id="XMLID_6_" fill="#353535" d="M254.2,69.5l-17.3,49.2h11.2l3.6-11.7h17.9l3.6,11.7h11.2L267,69.5H254.2z M254.3,98.3
		c3.5-11.3,5.6-18.4,6.3-21.2c0.2,0.8,0.5,1.9,0.9,3.3c0.4,1.4,2.3,7.4,5.6,17.9H254.3z"/>
	<path id="XMLID_3_" fill="#353535" d="M322,92c1.6-2.2,2.4-4.8,2.4-7.7c0-4.9-1.6-8.6-4.8-11.1c-3.2-2.4-8.1-3.6-14.8-3.6h-14.3v49
		h10.4V99.9h5.5l11.7,18.8h11.5c-2.2-3.2-7-10.3-14.4-21.4C318.2,96.1,320.4,94.3,322,92z M311.5,89.8c-1.6,1.1-4,1.6-7.3,1.6h-3.4
		V78.2h3.2c3.4,0,5.8,0.5,7.4,1.5c1.6,1,2.4,2.6,2.4,5C313.9,87,313.1,88.7,311.5,89.8z"/>
</g>
</svg>
